<svg width="168" height="112" viewBox="0 0 168 112" fill="none" xmlns="http://www.w3.org/2000/svg">
<path fill-rule="evenodd" clip-rule="evenodd" d="M84 54C76.692 54 70.084 50.9648 65.3552 46.0952C65.4656 45.964 65.556 45.8152 65.588 45.6408C66.3096 44.604 72.188 41.432 79.1992 38.6256C79.5792 38.4736 79.828 38.1056 79.828 37.6976V32.5248C79.828 32.1248 79.5568 31.7504 79.188 31.5928C79.1688 31.584 77.2416 30.708 77.2416 26.0608C77.2416 25.508 76.7952 25.0608 76.2416 25.0608C75.5536 25.0608 75.3032 24.112 75.3032 23.4744C75.3032 22.9992 75.4176 22.5528 75.62 22.2504C75.8344 21.9288 76.0648 21.888 76.2416 21.888C76.7952 21.888 77.2416 21.44 77.2416 20.888C77.2416 20.5208 77.0816 20.16 76.7296 19.3696C75.736 17.1456 75.3904 15.824 75.6992 15.4376C75.7792 15.34 76.1872 15.2056 77.156 15.4024C77.6768 15.5064 78.1968 15.1864 78.3256 14.6648C78.8616 12.5208 82.1736 11.5432 85.0216 11.5432C87.872 11.5432 91.184 12.5208 91.72 14.6656C92.2152 16.6448 91.3952 18.5456 90.904 19.68C90.672 20.2192 90.5312 20.544 90.5312 20.888C90.5312 21.44 90.9792 21.888 91.5312 21.888C91.6544 21.888 91.98 21.888 92.12 22.6504C92.3288 23.7904 91.8032 24.9608 91.552 25.0608C90.9992 25.0608 90.552 25.508 90.552 26.0608C90.552 30.6896 88.8112 31.5912 88.816 31.5912C88.6269 31.6634 88.4642 31.7913 88.3493 31.958C88.2345 32.1247 88.1729 32.3224 88.1728 32.5248V37.6968C88.1728 38.1056 88.4224 38.4736 88.8016 38.6256C95.8128 41.432 101.691 44.604 102.413 45.6416C102.446 45.8152 102.534 45.964 102.646 46.0952C97.9176 50.9648 91.3096 54 84 54ZM84 2C98.3368 2 110 13.6632 110 28C110.006 34.0514 107.891 39.9136 104.022 44.5672C102.164 42.0888 93.7624 38.4808 90.1728 37.0224V33.076C91.0208 32.4168 92.3872 30.748 92.5376 26.7928C93.5728 26.1896 94.1664 24.6648 94.1664 23.1808C94.1664 21.824 93.6624 20.7728 92.836 20.252C93.4 18.932 94.2816 16.6712 93.6592 14.1808C92.804 10.7584 88.4728 9.5432 85.0224 9.5432C81.8808 9.5432 78.0064 10.552 76.6944 13.3184C75.532 13.2272 74.676 13.5208 74.14 14.1872C72.9088 15.7192 74.108 18.4056 74.9008 20.1848L74.9216 20.2296C73.9376 20.7896 73.3032 21.9848 73.3032 23.4744C73.3032 25.1256 74.084 26.4184 75.2608 26.8792C75.4416 30.82 76.924 32.464 77.828 33.104V37.0224C74.6672 38.312 71.344 39.844 68.824 41.1776C65.7 42.832 64.4376 43.8152 63.9328 44.5136C60.093 39.8676 57.9948 34.0274 58 28C58 13.6632 69.664 2 84 2ZM84 0C68.5608 0 56 12.5608 56 28C56 43.4392 68.5608 56 84 56C99.4392 56 112 43.4392 112 28C112 12.5608 99.4392 0 84 0Z" fill="#888888"/>
<path fill-rule="evenodd" clip-rule="evenodd" d="M28 54C13.664 54 2 42.336 2 28C2 13.663 13.664 2 28 2C42.337 2 54 13.663 54 28C54 42.336 42.337 54 28 54ZM28 0C12.561 0 0 12.561 0 28C0 43.439 12.561 56 28 56C43.439 56 56 43.439 56 28C56 12.561 43.439 0 28 0ZM23.954 33.744C18.556 33.744 14.164 29.351 14.164 23.954C14.164 18.555 18.556 14.162 23.954 14.162C29.352 14.162 33.744 18.555 33.744 23.953C33.744 29.351 29.352 33.744 23.954 33.744ZM32.961 31.546C34.7589 29.4246 35.7452 26.7338 35.744 23.953C35.744 17.451 30.455 12.163 23.954 12.163C17.452 12.163 12.164 17.451 12.164 23.953C12.164 30.455 17.452 35.744 23.954 35.744C26.846 35.744 29.494 34.694 31.547 32.96L41.435 42.85C41.5276 42.9435 41.6378 43.0176 41.7592 43.0683C41.8807 43.1189 42.0109 43.145 42.1425 43.145C42.2741 43.145 42.4043 43.1189 42.5258 43.0683C42.6472 43.0176 42.7574 42.9435 42.85 42.85C42.943 42.7571 43.0167 42.6468 43.0671 42.5254C43.1174 42.404 43.1433 42.2739 43.1433 42.1425C43.1433 42.0111 43.1174 41.881 43.0671 41.7596C43.0167 41.6382 42.943 41.5279 42.85 41.435L32.961 31.546Z" fill="#888888"/>
<path fill-rule="evenodd" clip-rule="evenodd" d="M28 110C13.664 110 2 98.336 2 84C2 69.663 13.664 58 28 58C42.337 58 54 69.663 54 84C54 98.336 42.337 110 28 110ZM28 56C12.561 56 0 68.561 0 84C0 99.439 12.561 112 28 112C43.439 112 56 99.439 56 84C56 68.561 43.439 56 28 56ZM23.954 89.744C18.556 89.744 14.164 85.351 14.164 79.954C14.164 74.555 18.556 70.162 23.954 70.162C29.352 70.162 33.744 74.555 33.744 79.953C33.744 85.351 29.352 89.744 23.954 89.744ZM32.961 87.546C34.7589 85.4246 35.7452 82.7338 35.744 79.953C35.744 73.451 30.455 68.163 23.954 68.163C17.452 68.163 12.164 73.451 12.164 79.953C12.164 86.455 17.452 91.744 23.954 91.744C26.846 91.744 29.494 90.694 31.547 88.96L41.435 98.85C41.5276 98.9435 41.6378 99.0176 41.7592 99.0683C41.8807 99.1189 42.0109 99.145 42.1425 99.145C42.2741 99.145 42.4043 99.1189 42.5258 99.0683C42.6472 99.0176 42.7574 98.9435 42.85 98.85C42.943 98.7571 43.0167 98.6468 43.0671 98.5254C43.1174 98.404 43.1433 98.2739 43.1433 98.1425C43.1433 98.0111 43.1174 97.881 43.0671 97.7596C43.0167 97.6382 42.943 97.5279 42.85 97.435L32.961 87.546Z" fill="#B6116E"/>
<mask id="mask0" mask-type="alpha" maskUnits="userSpaceOnUse" x="56" y="56" width="56" height="56">
<path d="M84 112C99.464 112 112 99.464 112 84C112 68.536 99.464 56 84 56C68.536 56 56 68.536 56 84C56 99.464 68.536 112 84 112Z" fill="white"/>
</mask>
<g mask="url(#mask0)">
<path d="M84 112C99.464 112 112 99.464 112 84C112 68.536 99.464 56 84 56C68.536 56 56 68.536 56 84C56 99.464 68.536 112 84 112Z" fill="#4A4A4A"/>
<path fill-rule="evenodd" clip-rule="evenodd" d="M103.146 102.331C103.146 101.038 95.3872 97.1592 88.9216 94.5728V89.4008C88.9216 89.4008 91.3016 88.4928 91.3016 82.9352C93.1016 82.9352 93.7864 77.7632 91.2808 77.7632C91.2808 77.2176 93.2096 74.3776 92.4392 71.2976C91.1464 66.1256 78.3992 66.1256 77.1064 71.2976C71.66 70.1832 75.992 77.0184 75.992 77.7632C73.4056 77.7632 73.4056 82.9352 75.992 82.9352C75.992 88.4928 78.5776 89.4008 78.5776 89.4008V94.5728C72.1128 97.1592 64.3536 101.038 64.3536 102.331V112.11H103.146V102.331Z" fill="#9B9B9B"/>
</g>
<path fill-rule="evenodd" clip-rule="evenodd" d="M140 56C155.464 56 168 43.4639 168 28C168 12.5361 155.464 0 140 0C124.536 0 112 12.5361 112 28C112 43.4639 124.536 56 140 56Z" fill="#F6B554"/>
<mask id="mask1" mask-type="alpha" maskUnits="userSpaceOnUse" x="112" y="0" width="56" height="56">
<path fill-rule="evenodd" clip-rule="evenodd" d="M140 56C155.464 56 168 43.4639 168 28C168 12.5361 155.464 0 140 0C124.536 0 112 12.5361 112 28C112 43.4639 124.536 56 140 56Z" fill="white"/>
</mask>
<g mask="url(#mask1)">
<g clip-path="url(#clip0)">
<path d="M147 5C146.793 3.17581 143.585 2 140 2C136.415 2 133.063 3.17581 133 5" stroke="#404040" stroke-width="0.5"/>
<mask id="mask2" mask-type="alpha" maskUnits="userSpaceOnUse" x="120" y="4" width="41" height="52">
<path d="M120 56H160V4H120V56Z" fill="white"/>
</mask>
<g mask="url(#mask2)">
<path d="M120 56H160V4H120V56Z" fill="#C2977C"/>
<path fill-rule="evenodd" clip-rule="evenodd" d="M153.093 51.7262L144.438 46.5143L156.148 25.9508L164.803 31.1627L153.093 51.7262Z" fill="#EB8930"/>
<path fill-rule="evenodd" clip-rule="evenodd" d="M120 37.8988V60.0976H123.207L136.721 36.1544L125.003 29.0351L120 37.8988Z" fill="#5CB79F"/>
<path fill-rule="evenodd" clip-rule="evenodd" d="M140.58 53.2339L151.709 59.8773H159.262L160.73 57.3207L143.977 47.3201L140.58 53.2339Z" fill="#DF3378"/>
<path fill-rule="evenodd" clip-rule="evenodd" d="M146.569 40.7111L138.221 35.6996L141.021 30.7975L149.369 35.809L146.569 40.7111Z" fill="#B71277"/>
<path fill-rule="evenodd" clip-rule="evenodd" d="M154.085 52.2806L174.021 63.9529L215.823 58.9961L165.781 31.6787L154.085 52.2806Z" fill="#F75F75"/>
<path fill-rule="evenodd" clip-rule="evenodd" d="M120 24.7675L137.234 35.2035L141.008 28.5383L120 15.817V24.7675Z" fill="#DF3378"/>
<path fill-rule="evenodd" clip-rule="evenodd" d="M120 34.1224L120.683 34.5426L124.073 28.4576L120 25.9508V34.1224Z" fill="#F75F75"/>
<path fill-rule="evenodd" clip-rule="evenodd" d="M137.613 56.5728L129.218 51.5192L137.758 36.5253L146.153 41.579L137.613 56.5728Z" fill="#F5B554"/>
</g>
<path fill-rule="evenodd" clip-rule="evenodd" d="M152.966 16.8484C152.607 16.9101 152.169 17.0213 150.832 17.0213C149.372 17.0213 148.238 16.589 148.238 14.4903L148.238 11.8926C148.238 9.79371 149.373 9.36169 150.833 9.36169C152.169 9.36169 152.607 9.47276 152.967 9.53448C153.135 9.55921 153.192 9.62093 153.192 9.79371V10.5839C153.192 10.7197 153.09 10.8308 152.967 10.8308H150.676C150.024 10.8308 149.788 11.0778 149.788 11.8926V12.3862H152.832C152.956 12.3862 153.057 12.4974 153.057 12.6332V13.5221C153.057 13.6579 152.956 13.7689 152.832 13.7689H149.788L149.788 14.4903C149.788 15.3051 150.024 15.5521 150.675 15.5521H152.966C153.09 15.5521 153.191 15.6631 153.191 15.7989V16.589C153.191 16.7619 153.135 16.8236 152.966 16.8484Z" fill="#222222"/>
<path fill-rule="evenodd" clip-rule="evenodd" d="M139.473 10.0001L138.422 16.7858C138.401 16.9098 138.315 17.0213 138.207 17.0213H138.099C138.002 17.0213 137.949 16.9345 137.949 16.8355V16.7858L138.999 10.0001C139.021 9.8763 139.107 9.76483 139.214 9.76483H139.322C139.419 9.76483 139.473 9.85155 139.473 9.95065V10.0001Z" fill="#222222"/>
<path fill-rule="evenodd" clip-rule="evenodd" d="M136.805 9.9729L135.86 16.0299C135.756 16.8009 135.42 17.0213 134.819 17.0213H134.194C133.673 17.0213 133.396 16.752 133.234 16.0421L132.319 12.9974C132.296 12.8872 132.296 12.8627 132.25 12.8627C132.204 12.8627 132.192 12.8872 132.169 12.9974L131.255 16.0421C131.093 16.752 130.815 17.0213 130.295 17.0213H129.67C129.068 17.0213 128.733 16.8009 128.629 16.0299L127.66 9.9729V9.93623C127.66 9.82601 127.752 9.76483 127.856 9.76483H129.083C129.175 9.76483 129.268 9.85053 129.279 9.98516L129.994 15.3567C130.005 15.4668 130.005 15.5403 130.052 15.5403C130.098 15.5403 130.098 15.4668 130.121 15.3567L131.116 12.0549C131.186 11.7613 131.348 11.5043 131.845 11.5043H132.644C133.141 11.5043 133.303 11.7613 133.373 12.0549L134.368 15.3567C134.391 15.4668 134.391 15.5403 134.437 15.5403C134.483 15.5403 134.483 15.4668 134.495 15.3567L135.185 9.98516C135.197 9.85053 135.29 9.76483 135.382 9.76483H136.608C136.713 9.76483 136.805 9.82601 136.805 9.93623V9.9729Z" fill="#222222"/>
<path fill-rule="evenodd" clip-rule="evenodd" d="M146.555 9.76483H146.418C146.305 9.76483 146.226 9.8763 146.203 10.0003L145.175 16.4022C145.164 16.4517 145.107 16.5013 145.095 16.5013C145.094 16.5013 145.092 16.5003 145.091 16.5V16.4998C145.087 16.4996 145.085 16.4978 145.082 16.4972C145.049 16.4896 145.037 16.4577 145.028 16.4142L143.176 10.1488C143.108 9.93827 142.961 9.76483 142.666 9.76483C142.651 9.76483 142.636 9.76551 142.62 9.76676V9.76483C142.613 9.7654 142.606 9.76653 142.598 9.76733V9.76483C142.373 9.79094 142.114 9.95144 142.042 10.3675L140.997 16.7859V16.8355C140.997 16.9344 141.054 17.0212 141.156 17.0212H141.269C141.383 17.0212 141.473 16.9097 141.496 16.7859L142.541 10.3675C142.551 10.3146 142.577 10.2899 142.598 10.2836V10.2861C142.602 10.285 142.606 10.2832 142.609 10.2832C142.613 10.2832 142.616 10.2849 142.62 10.2853V10.2872C142.662 10.2925 142.701 10.3262 142.711 10.3719L144.563 16.6249C144.653 16.9338 144.8 17.0208 145.082 17.0212C145.083 17.0212 145.084 17.0213 145.084 17.0213C145.086 17.0213 145.089 17.0209 145.091 17.0209V17.0213C145.371 17.0178 145.618 16.7955 145.685 16.4022L146.713 10.0003V9.95065C146.713 9.85167 146.668 9.76483 146.555 9.76483Z" fill="#222222"/>
</g>
</g>
<path d="M120 9H160V4H120V9Z" fill="#C2977C"/>
<defs>
<clipPath id="clip0">
<rect width="47" height="66" fill="white" transform="translate(120 -1)"/>
</clipPath>
</defs>
</svg>
