<svg width="56" height="57" xmlns="http://www.w3.org/2000/svg" fill="none">
 <title>user-icon</title>

 <g>
  <title>Layer 1</title>
  <path id="svg_1" stroke-width="2" stroke="#555555" d="m55,28.1137c0,14.9551 -12.0908,27.0741 -27,27.0741c-14.9092,0 -27,-12.119 -27,-27.0741c0,-14.955 12.0908,-27.07403 27,-27.07403c14.9092,0 27,12.11903 27,27.07403z"/>
  <g>
   <path stroke-linejoin="round" stroke-linecap="round" stroke-width="2.20833" stroke="#555555" d="m46.64136,46.94081c-10.7695,10.7696 -26.0637,10.7696 -36.83329,0c2.50699,-2.507 7.26449,-5.2861 13.63219,-7.8331l0,-5.0942c0,0 -2.5471,-0.894 -2.5471,-6.3676c-2.547,0 -2.547,-5.0941 0,-5.0941c0,-0.7336 -4.2663,-7.46545 1.0978,-6.36767c1.2735,-5.09411 13.828,-5.09411 15.1015,0c0.759,3.03357 -1.1411,5.83017 -1.1411,6.36767c2.4681,0 1.7931,5.0941 0.0204,5.0941c0,5.4736 -2.3433,6.3676 -2.3433,6.3676l0,5.0942c6.3676,2.547 9.7635,4.6725 13.0129,7.8331z"/>
  </g>
 </g>
</svg>