<svg width="56" height="57.00000000000001" xmlns="http://www.w3.org/2000/svg" fill="none">
 <title>search-icon</title>
 <g>
  <title>Layer 1</title>
  <circle cx="28" cy="28.9974" r="27" stroke="#555555" stroke-width="2" id="svg_1"/>
  <g>
   <path fill="#555555" d="m24.04304,14.25011c-5.68394,0 -10.29167,4.60773 -10.29167,10.2917c0,5.6839 4.60773,10.2916 10.29167,10.2916c5.6839,0 10.2917,-4.6077 10.2917,-10.2916c0,-5.68397 -4.6078,-10.2917 -10.2917,-10.2917zm-11.87501,10.2917c0,-6.55842 5.31662,-11.87504 11.87501,-11.87504c6.5584,0 11.875,5.31662 11.875,11.87504c0,2.9949 -1.1087,5.7309 -2.9381,7.8198l10.6202,10.6202c0.3091,0.3091 0.3091,0.8104 0,1.1196c-0.3092,0.3091 -0.8104,0.3091 -1.1196,0l-10.6203,-10.6203c-2.0887,1.8279 -4.8236,2.9357 -7.8172,2.9357c-6.55839,0 -11.87501,-5.3167 -11.87501,-11.875z" clip-rule="evenodd" fill-rule="evenodd"/>
  </g>
 </g>

</svg>